<svg xmlns="http://www.w3.org/2000/svg" stroke-linecap="round" stroke-linejoin="round" viewBox="0 0 52 52"><path fill="#fef" stroke="#fef" stroke-width="4" d="M6.9 36.56c-.63-.97-2.01-3.38-1.7-5.56-.55 1.04-1 2-1 2s-1.8-8.1 1-13A12.3 12.3 0 0 1 2 22s6.16-10.42 11.2-12c-1.32-.57-2.12-.99-2-2 2.6.57 10.48-2.71 14-1-1-1.6-1-3-1-3s4.38 3.27 5 3c.62-.27 11.59-1.91 18 10s.02 19.15-2 20c.14-.6-.05-1.14-.44-1.6a7.64 7.64 0 0 1-.07 5.32c.54 1.87 2.27 6.6 5.31 3.78-1.05 2.52-3.06 2.44-4 2.5.56 1.35-4.87.68-5.5 0 .46 1.36-4.78.95-6.17-1.1A24.1 24.1 0 0 1 24.2 48c-12.62 0-19-3.58-19-8 0-1.23.6-2.4 1.7-3.44Z"/><path fill="#306" stroke="#306" d="M44.5 40s1.76 7.97 5.5 4.5c-1.05 2.52-3.06 2.44-4 2.5.56 1.35-4.87.68-5.5 0 .52 1.55-6.29.8-6.5-2-.21-2.8 10.5-5 10.5-5Z"/><path fill="#fdc" d="M45.2 29c0 10.49-8.17 19-21 19-12.62 0-19-3.58-19-8 0-1.7 1.15-3.27 3.12-4.56A18.96 18.96 0 0 1 7.2 29c0-10.49 6.51-19 19-19 10.49 0 19 4.51 19 19Z"/><clipPath id="a"><path d="M45.2 29c0 10.49-8.17 19-21 19-12.62 0-19-3.58-19-8 0-1.7 1.15-3.27 3.12-4.56A18.96 18.96 0 0 1 7.2 29c0-10.49 6.51-19 19-19 10.49 0 19 4.51 19 19Z"/></clipPath><g clip-path="url(#a)"><path fill="#fbd" d="M12.2 34c2.48 0 4.5 1.57 4.5 3.5S14.68 41 12.2 41s-4.5-1.57-4.5-3.5S9.72 34 12.2 34Zm21 0c2.48 0 4.5 1.57 4.5 3.5S35.68 41 33.2 41s-4.5-1.57-4.5-3.5 2.02-3.5 4.5-3.5Z"/><path fill="none" stroke="#306" d="M18.47 39.98c-.16.3-.39.69-.31 1.03.13.63 1.09.62 1.54.45.22-.07.42-.2.59-.35.1-.1.2-.29.36-.3.1-.02.22.13.28.18.17.15.35.28.56.37.58.26 1.22.2 1.82.02a2.2 2.2 0 0 0 1.14-.64c.27-.35.25-.8-.2-.99M9.7 32.5s3.12-1.08 7-1m-7 1.9s3.12-1.07 7-1m-7 1.9s3.12-1.07 7-1m-7 1.9s3.12-1.07 7-1m9-2.7s6.72-.21 8.5.5m-8.5.43s6.72-.21 8.5.5m-8.5.4s6.72-.21 8.5.5m-8.5.4s6.72-.21 8.5.5"/><path fill="#fef" d="M12.8 31.96c.54-.14 1.06.07 1.17.47.1.4-.24.84-.78.98-.53.14-1.05-.07-1.16-.47-.1-.4.24-.84.78-.98Zm2.2 0a.5.5 0 1 1 0 1 .5.5 0 0 1 0-1Zm-.2 1.62c.12.13.1.37-.06.53-.17.16-.4.19-.53.06-.14-.13-.1-.37.05-.53.17-.17.4-.2.53-.06Zm13.95-2.08c.55 0 1 .34 1 .75s-.45.75-1 .75-1-.34-1-.75.45-.75 1-.75Zm1.5 1.75a.5.5 0 1 1 0 1 .5.5 0 0 1 0-1Zm.75-1a.25.25 0 1 1 0 .5.25.25 0 0 1 0-.5Z"/><path fill="#306" stroke="#306" d="M8.62 27.73s2.49-2.7 7.58-1.69c-.82-1.63-2.71-3.15-5.9-1.68-3.16 1.46-2.16 4.62-1.68 3.37Zm26.08-1.38s-3.4-2.99-9.5-1.07c.79-2.12 2.9-4.22 7-2.84 4.07 1.37 3.26 5.38 2.5 3.9Z"/></g><path fill="none" stroke="#306" d="M45.2 29c0 10.49-8.17 19-21 19-12.62 0-19-3.58-19-8 0-1.7 1.15-3.27 3.12-4.56A18.96 18.96 0 0 1 7.2 29c0-10.49 6.51-19 19-19 10.49 0 19 4.51 19 19Z"/><path fill="none" stroke="#306" d="M12.7 27c3.86 0 7 2.8 7 6.25s-3.14 6.25-7 6.25-7-2.8-7-6.25S8.84 27 12.7 27Zm18-.5c4.14 0 7.5 2.91 7.5 6.5s-3.36 6.5-7.5 6.5c-4.14 0-7.5-2.91-7.5-6.5s3.36-6.5 7.5-6.5Zm-11 7h3.5"/><path fill="#fdc" stroke="#306" d="M39.7 34c3.04-4 5.5.69 5.5 4s-2.46 8-7.5 4"/><g fill="#306"><path stroke="#306" d="M19.2 15s-8.73 6.4-8 23c-1.21-.55-2-3-2-3s-.23 1.48 0 2l-1-1-1 1s-2.4-3.2-2-6c-.55 1.04-1 2-1 2s-1.8-8.1 1-13A12.3 12.3 0 0 1 2 22s6.16-10.42 11.2-12c-1.32-.57-2.12-.99-2-2 2.6.57 10.48-2.71 14-1-1-1.6-1-3-1-3s4.38 3.27 5 3c.62-.27 11.59-1.91 18 10s.02 19.15-2 20c-1.39-7.56-4.5-4-4.5-4s-2.7 3.25-4.5 4c-.28-1.9 0-2 0-2s-3.34 3-4 3c-.64 0 6.4-12.32-1-18-6.88-5.38-9.36-6.59-12-5Z"/><circle cx="41.2" cy="40.9" r="1.5"/></g></svg>