<svg xmlns="http://www.w3.org/2000/svg" xml:space="preserve" fill-rule="evenodd" stroke-linecap="round" stroke-linejoin="round" stroke-miterlimit="1.5" clip-rule="evenodd" viewBox="0 0 25 10"><g fill="none"><path stroke="#306" d="M7.5 1.5h0a1 1 0 0 0-1 1v4a1 1 0 0 0 1 1s0 0 0 0m15-6h0c.6 0 1 .4 1 1v4a1 1 0 0 1-1 1s0 0 0 0"/><path stroke="#e4a" d="M1.5 8.5h0c.6 0 1-.4 1-1v-4a2 2 0 0 1 2-2s0 0 0 0m-3 3h3m7 2h-2a1 1 0 0 1-1-1V4a1.5 1.5 0 0 1 3 0v.5h-3m5-2 3 4m-3 0 3-4m2 6v-6h1a2 2 0 0 1 0 4h-1"/></g></svg>