<svg xmlns="http://www.w3.org/2000/svg" xml:space="preserve" fill-rule="evenodd" stroke-linejoin="round" stroke-miterlimit="2" clip-rule="evenodd" viewBox="0 0 132 24"><path fill="url(#a)" d="M13.93 13.93a23.18 23.18 0 0 1-1.16 6.18c-.18.51-.4 1-.65 1.48-.22.42-.49.82-.79 1.18-.29.35-.63.64-1.02.87-.4.23-.85.36-1.31.36-.46 0-.91-.13-1.31-.36a3.86 3.86 0 0 1-1.02-.87c-.3-.36-.57-.76-.79-1.18-.25-.48-.47-.97-.65-1.48-.42-1.2-.72-2.43-.9-3.68a27.5 27.5 0 0 1-.32-3.62l-.12-.04c-.51-.18-1-.4-1.48-.65a6.75 6.75 0 0 1-1.18-.79 3.86 3.86 0 0 1-.87-1.02C.13 9.91 0 9.46 0 9c0-.46.13-.91.36-1.31.23-.39.52-.73.87-1.02.36-.3.76-.57 1.18-.79a11.45 11.45 0 0 1 2.5-.98 11.45 11.45 0 0 1 .98-2.5c.21-.41.48-.81.78-1.17.29-.35.63-.64 1.02-.87C8.09.13 8.54 0 9 0c.46 0 .91.13 1.31.36.39.23.73.52 1.02.87.3.36.57.76.79 1.18.25.48.47.97.65 1.48l.04.12c1.2.03 2.42.13 3.62.32 1.25.18 2.48.48 3.68.9.51.18 1 .4 1.48.65.42.22.82.49 1.18.79.35.29.64.63.87 1.02.23.4.36.85.36 1.31 0 .46-.13.91-.36 1.31-.23.39-.52.73-.87 1.02-.36.3-.76.57-1.18.79-.48.25-.97.47-1.48.65a23.18 23.18 0 0 1-6.18 1.16Zm-9.9-3.25a27.65 27.65 0 0 1 .36-3.5A8.08 8.08 0 0 0 2.5 8.21c-.16.14-.3.3-.41.49A.53.53 0 0 0 2 9c0 .11.03.21.09.3.11.19.25.35.41.49.26.22.55.4.85.56.22.12.45.23.68.33Zm9.34-4.64a28.45 28.45 0 0 1 .63 5.88c.71-.04 1.43-.12 2.13-.22a18.6 18.6 0 0 0 3.31-.81c.42-.15.82-.33 1.21-.54.3-.16.59-.34.85-.56.16-.14.3-.3.41-.49A.53.53 0 0 0 22 9a.53.53 0 0 0-.09-.3 1.94 1.94 0 0 0-.41-.49 4.8 4.8 0 0 0-.85-.56 8.75 8.75 0 0 0-1.21-.54 18.6 18.6 0 0 0-3.31-.81c-.91-.13-1.83-.22-2.76-.26Zm-6.2-1.65.4-.06c1.03-.16 2.07-.26 3.11-.3-.1-.23-.21-.46-.33-.68a4.8 4.8 0 0 0-.56-.85c-.14-.16-.3-.3-.49-.41A.53.53 0 0 0 9 2a.53.53 0 0 0-.3.09c-.19.11-.35.25-.49.41-.22.26-.4.55-.56.85a9.8 9.8 0 0 0-.48 1.04ZM12 12c0-1.39-.1-2.77-.3-4.13a16.6 16.6 0 0 0-.39-1.86 28.33 28.33 0 0 0-4.76.54A28.59 28.59 0 0 0 6 11.31c.62.17 1.24.3 1.87.39 1.36.2 2.75.3 4.13.3ZM7 9.2a2 2 0 1 1 4 0 2 2 0 0 1-4 0Zm4.92 4.8a28.45 28.45 0 0 1-5.88-.63c.04.93.13 1.85.26 2.76.17 1.13.44 2.24.81 3.31.15.42.33.82.54 1.21.16.3.34.59.56.85.14.16.3.3.49.41.09.06.19.09.3.09.11 0 .21-.03.3-.09.19-.11.35-.25.49-.41.22-.26.4-.55.56-.85.21-.39.39-.79.54-1.21A18.6 18.6 0 0 0 11.92 14Zm85.49-1.06v4.84h-3.16V2.85h5.89a6 6 0 0 1 2.9.65 4.4 4.4 0 0 1 1.82 1.78c.42.76.63 1.64.63 2.63 0 1-.21 1.87-.64 2.62a4.43 4.43 0 0 1-1.86 1.78c-.8.42-1.78.63-2.93.63h-2.65Zm0-2.53h2.14c.6 0 1.1-.1 1.5-.32.4-.2.7-.5.9-.88.2-.38.29-.8.29-1.3s-.1-.93-.3-1.3c-.2-.37-.49-.66-.89-.87-.4-.2-.9-.3-1.52-.3h-2.12v4.97Zm-62.25 2.08v5.29H32V2.85h5.89c1.13 0 2.1.2 2.89.6.8.4 1.4.97 1.83 1.7.42.73.63 1.6.63 2.58 0 .99-.21 1.84-.64 2.55a4.16 4.16 0 0 1-1.86 1.64l-.13.06 3.16 5.8H40.3l-2.83-5.3h-2.3Zm0-2.54h2.14c.6 0 1.1-.08 1.5-.25.4-.16.7-.4.9-.74.2-.33.29-.74.29-1.23 0-.5-.1-.92-.3-1.26-.2-.34-.5-.6-.9-.77-.4-.18-.9-.27-1.5-.27h-2.13v4.52Zm12.68 3.03c0 .56.1 1.04.3 1.44.22.4.5.71.89.93a3.1 3.1 0 0 0 2.29.19 1.9 1.9 0 0 0 1.2-1.15l2.88.18c-.15.7-.45 1.3-.9 1.8-.44.52-1.02.92-1.73 1.2a6.5 6.5 0 0 1-2.45.43 5.94 5.94 0 0 1-2.97-.7 4.75 4.75 0 0 1-1.9-2 6.58 6.58 0 0 1-.68-3.07c0-1.15.22-2.16.67-3.03a4.95 4.95 0 0 1 1.9-2.03 5.49 5.49 0 0 1 2.86-.73c.74 0 1.43.12 2.07.35a4.67 4.67 0 0 1 2.8 2.84c.26.7.4 1.54.4 2.5v.85h-7.63Zm0-1.93h4.7c0-.45-.1-.84-.29-1.19-.2-.34-.46-.61-.8-.8-.35-.2-.75-.3-1.2-.3a2.33 2.33 0 0 0-2.1 1.2c-.18.32-.29.69-.3 1.1ZM82.2 8.92h-1.53V6.58h1.53V3.9h3.1v2.68h2.11v2.34h-2.1v5.42c0 .29.04.5.13.67.09.15.2.27.37.33.15.06.34.1.55.1.14 0 .29-.02.43-.05l.34-.06.49 2.31-.66.17a5.58 5.58 0 0 1-3-.18 2.72 2.72 0 0 1-1.3-1.06 3.25 3.25 0 0 1-.46-1.82V8.92Zm28.18 9.07c-.71 0-1.35-.12-1.9-.37-.57-.26-1-.63-1.33-1.12a3.3 3.3 0 0 1-.49-1.85c0-.62.12-1.14.35-1.56.22-.43.54-.77.93-1.03.4-.25.84-.45 1.34-.58.5-.13 1.04-.22 1.59-.28a26.3 26.3 0 0 0 1.57-.19c.4-.06.7-.15.87-.27a.6.6 0 0 0 .27-.54v-.04c0-.47-.14-.82-.43-1.08a1.8 1.8 0 0 0-1.23-.38c-.56 0-1 .13-1.33.37-.34.25-.55.56-.66.92l-2.87-.23a3.93 3.93 0 0 1 2.52-2.92 7.25 7.25 0 0 1 4.15-.19c.56.15 1.07.38 1.52.68a3.33 3.33 0 0 1 1.44 2.9v7.55h-2.95v-1.55h-.08a3.12 3.12 0 0 1-1.81 1.54c-.43.15-.91.22-1.47.22Zm.9-2.14c.45 0 .85-.1 1.2-.28a1.92 1.92 0 0 0 1.12-1.8V12.6c-.1.06-.23.12-.4.17a5.7 5.7 0 0 1-1.19.25l-.56.08a3.8 3.8 0 0 0-.96.26c-.27.12-.48.27-.63.47-.15.2-.23.44-.23.73 0 .42.16.75.46.97.31.22.7.33 1.18.33Zm10.92 1.93h-3.1V6.58h3.1v11.2Zm-1.53-12.64a1.7 1.7 0 0 1-1.2-.46 1.5 1.5 0 0 1-.49-1.11c0-.43.17-.8.5-1.1.33-.32.72-.47 1.18-.47.47 0 .86.15 1.2.46.32.31.48.68.48 1.1 0 .44-.16.8-.49 1.12-.33.3-.72.46-1.18.46Zm7.12 12.64h-3.1V6.58h3v1.96h.12a2.71 2.71 0 0 1 2.69-2.11 4.82 4.82 0 0 1 .98.1V9.3a5.43 5.43 0 0 0-1.31-.17c-.46 0-.87.1-1.23.3a2.2 2.2 0 0 0-1.15 2.03v6.33Zm-67.1.21c-.72 0-1.36-.12-1.92-.37-.55-.26-1-.63-1.32-1.12a3.3 3.3 0 0 1-.48-1.85c0-.62.11-1.14.34-1.56.23-.43.54-.77.93-1.03.4-.25.84-.45 1.35-.58.5-.13 1.03-.22 1.58-.28a27.9 27.9 0 0 0 1.58-.19c.4-.06.68-.15.86-.27a.6.6 0 0 0 .27-.54v-.04c0-.47-.14-.82-.43-1.08a1.8 1.8 0 0 0-1.23-.38c-.56 0-1 .13-1.33.37a1.8 1.8 0 0 0-.66.92l-2.87-.23a3.93 3.93 0 0 1 2.52-2.92 7.25 7.25 0 0 1 4.15-.19 5 5 0 0 1 1.52.68 3.31 3.31 0 0 1 1.44 2.9v7.55h-2.95v-1.55h-.08a3.1 3.1 0 0 1-1.81 1.54c-.42.15-.91.22-1.47.22Zm.88-2.14c.46 0 .86-.1 1.21-.28a1.92 1.92 0 0 0 1.12-1.8V12.6c-.1.06-.23.12-.4.17a5.78 5.78 0 0 1-1.18.25l-.57.08a3.8 3.8 0 0 0-.96.26c-.27.12-.48.27-.63.47-.15.2-.23.44-.23.73 0 .42.16.75.47.97.3.22.7.33 1.17.33ZM74.46 18a5.69 5.69 0 0 1-2.96-.73 4.89 4.89 0 0 1-1.9-2.04 6.57 6.57 0 0 1-.65-3c0-1.15.22-2.16.67-3.03a4.94 4.94 0 0 1 1.9-2.03c.82-.49 1.8-.73 2.93-.73.97 0 1.83.17 2.56.53a4.3 4.3 0 0 1 1.74 1.5c.43.63.67 1.39.71 2.25h-2.93c-.08-.56-.3-1-.65-1.35a1.9 1.9 0 0 0-1.38-.51c-.48 0-.9.13-1.26.39s-.64.64-.83 1.13c-.2.5-.3 1.1-.3 1.8 0 .72.1 1.32.3 1.82.19.5.47.89.83 1.15a2.1 2.1 0 0 0 2.21.17c.29-.14.52-.36.71-.63.19-.28.31-.62.37-1.01h2.93c-.05.85-.28 1.6-.7 2.25a4.24 4.24 0 0 1-1.71 1.52c-.73.37-1.6.55-2.59.55Z"/><defs><linearGradient id="a" x1="0" x2="1" y1="0" y2="0" gradientTransform="matrix(0 24 -24 0 12 0)" gradientUnits="userSpaceOnUse"><stop offset="0" stop-color="#6cf"/><stop offset="1" stop-color="#0a8"/></linearGradient></defs></svg>