<svg xmlns="http://www.w3.org/2000/svg" viewBox="0 0 168 35"><path fill="none" stroke="#0a8" stroke-linecap="round" stroke-linejoin="round" stroke-width="2" d="M105 28v6l6-6m7 6v-6l6 6v-6m12 0v6l3-3v3l3-3v-3m-27 6v-6l-6 6h3m37 0v-6l-6 6h3m21 0h-6v-6h6m-15 6v-6h6v3h-3l3 3m-25-6h-6v6h6v-3h-3m34 0h3"/><path fill="none" stroke="#666" stroke-linecap="round" stroke-linejoin="round" stroke-miterlimit="3" d="M96.5 28.5v3h1c.6 0 1-.4 1-1h0c0-.6-.4-1-1-1h-1m4 4h0c.6 0 1-.4 1-1v-3 2h-1a1 1 0 0 1-1-1v-1"/><path fill="none" stroke="#08a" stroke-linecap="round" stroke-linejoin="round" stroke-width="6" d="m75 3 .1 18L57 3v18M21 3H3v18h18M165 3h-18v9h18v9h-18M30 3h18v18H30V3m72 0H84v18m27-18v18m-9-9h-9m36 0h9v9h-18V3h18"/></svg>
