<svg xmlns="http://www.w3.org/2000/svg" viewBox="0 0 87 35"><path fill="none" stroke="#0a8" stroke-linecap="round" stroke-linejoin="round" stroke-width="2" d="M24 28v6l6-6m7 6v-6l6 6v-6m12 0v6l3-3v3l3-3v-3m-27 6v-6l-6 6h3m37 0v-6l-6 6h3m21 0h-6v-6h6m-15 6v-6h6v3h-3l3 3m-25-6h-6v6h6v-3h-3m34 0h3"/><path fill="none" stroke="#666" stroke-linecap="round" stroke-linejoin="round" stroke-miterlimit="3" d="M15.5 28.5v3h1c.6 0 1-.4 1-1h0c0-.6-.4-1-1-1h-1m4 4h0c.6 0 1-.4 1-1v-3 2h-1a1 1 0 01-1-1v-1"/><path fill="none" stroke="#666" stroke-linecap="round" stroke-linejoin="round" stroke-width="6" d="M21 21V3L3 21h9M48 3v18L30 3v18M75 3H57v9h18v9H57M84 3v18"/></svg>
