<svg xmlns="http://www.w3.org/2000/svg" stroke-linecap="round" stroke-linejoin="round" viewBox="0 0 89 35" fill="none"><path stroke="#0a8" stroke-width="2" d="M26 28v6l6-6m7 6v-6l6 6v-6m12 0v6l3-3v3l3-3v-3m-27 6v-6l-6 6h3m37 0v-6l-6 6h3m21 0h-6v-6h6m-15 6v-6h6v3h-3l3 3m-25-6h-6v6h6v-3h-3m34 0h3"/><path stroke="#666" d="M17.5 28.5v3h1a1 1 0 0 0 0-2h-1m4 4c.6 0 1-.4 1-1v-3 2h-1a1 1 0 0 1-1-1v-1"/><path stroke="#4a4" stroke-width="6" d="M41 21V3h18m-9 9h9M3 21V3l20 9-12 5.4M32 3v18m36 0V3h18m-9 9h9"/></svg>