<svg xmlns="http://www.w3.org/2000/svg" fill-rule="evenodd" stroke-linecap="round" stroke-linejoin="round" clip-rule="evenodd" viewBox="0 0 141 35"><g fill="none"><path stroke="#0a8" stroke-width="2" d="M78 28v6l6-6m7 6v-6l6 6v-6m12 0v6l3-3v3l3-3v-3m-27 6v-6l-6 6h3m37 0v-6l-6 6h3m21 0h-6v-6h6m-15 6v-6h6v3h-3l3 3m-25-6h-6v6h6v-3h-3m34 0h3"/><path stroke="#666" stroke-miterlimit="3" d="M69.5 28.5v3h1a1 1 0 0 0 0-2h-1m4 4a1 1 0 0 0 1-1v-3 2h-1a1 1 0 0 1-1-1v-1"/><path stroke="#a08" stroke-width="6" d="M21 3v17.98L3 3v17.98m26.96-18H48V21H29.96L30 2.98m27 0h18.04m-9 9V21M120 2.98 129.02 9l9.02-6.02m-9 15V21M111 2.98 93 3l.02 18M111 12h-9M84 3v18"/></g></svg>