<svg xmlns="http://www.w3.org/2000/svg" viewBox="0 0 186 35"><g fill="none" stroke-linecap="round" stroke-linejoin="round" stroke-miterlimit="3"><path stroke="#0A8" stroke-width="2" d="M123 28v6l6-6m7 6v-6l6 6v-6m12 0v6l3-3v3l3-3v-3m-27 6v-6l-6 6h3m37 0v-6l-6 6h3m21 0h-6v-6h6m-15 6v-6h6v3h-3l3 3m-25-6h-6v6h6v-3h-3m34 0h3"/><path stroke="#666" d="M114.5 28.5v3h1c.6 0 1-.4 1-1h0c0-.6-.4-1-1-1h-1m4 4h0c.6 0 1-.4 1-1v-3 2h-1a1 1 0 0 1-1-1v-1"/><path stroke="#8A8" stroke-width="6" d="M138 3h18m-9 9v9m36-18h-18v9h18v9h-18M3 21V3h18v9h-9m18 9V3h18v9h-9l9 9m9-18v18h18V3H57Zm27 18V3l9 9 9-9v18m9 0V3h18v9h-9"/></g></svg>