<svg xmlns="http://www.w3.org/2000/svg" xml:space="preserve" fill-rule="evenodd" stroke-linecap="round" stroke-linejoin="round" stroke-miterlimit="3" clip-rule="evenodd" viewBox="0 0 206 34"><path fill="#fff" d="M0 0h34v34H0z"/><path fill-rule="nonzero" d="M1 1h32v32H1z"/><g fill="#fff"><path fill-rule="nonzero" d="M31 2h1v1h-1v1h1v1h-1V4h-1v1h-1V4h1V3h-1V2h1v1h1V2Z"/><path d="M25 2h3v3h-3V2Zm1 1h1v1h-1V3Z"/><path fill-rule="nonzero" d="M21 4h3v1h-3zM2 2h3v3H2z"/></g><path fill="#fff" fill-rule="nonzero" d="M2 6h30v26H2z"/><path fill="#fff" fill-rule="nonzero" d="M11 17v5h1v2h1v2h1v2h8v-2h1v-3h1V10h-2v6h-9v1h-2Z"/><path d="M11 16h2v-1h8v-5h1V9h2v1h1v13h-1v3h-1v3H13v-3h-1v-2h-1v-2h-1v-5h1v-1Zm0 6v-5h1v2h1v-3h2v1h1v-1h2v1h1v-1h2v1h1v-7h2v13h-1v3h-1v2h-8v-2h-1v-2h-1v-2h-1Z"/><g fill-rule="nonzero"><path fill="#fff" stroke="#fff" stroke-width="2" d="M149.43 16.92h-2.8v4.66h-1.58V9.68h4.4c1.3 0 2.33.33 3.07 1 .73.66 1.1 1.54 1.1 2.63 0 1.16-.36 2.05-1.08 2.67-.72.63-1.76.94-3.1.94Zm-2.8-5.95v4.66h2.82c.84 0 1.49-.2 1.93-.59.45-.4.67-.96.67-1.7a2.2 2.2 0 0 0-.67-1.7 2.65 2.65 0 0 0-1.84-.67h-2.91Zm13.04 1.71v1.41a4.55 4.55 0 0 0-.74-.06c-1 0-1.67.43-2.02 1.27v6.28h-1.52v-8.85h1.48l.02 1.03c.5-.8 1.2-1.19 2.11-1.19.3 0 .52.04.67.11Zm.83 4.5v-.1c0-.87.17-1.65.51-2.34a3.8 3.8 0 0 1 3.51-2.17c1.2 0 2.18.42 2.93 1.25a4.8 4.8 0 0 1 1.11 3.33v.1c0 .86-.16 1.64-.5 2.32a3.75 3.75 0 0 1-3.52 2.17c-1.2 0-2.18-.42-2.92-1.25a4.78 4.78 0 0 1-1.12-3.31Zm1.52.07c0 .98.23 1.77.69 2.36.45.6 1.06.9 1.83.9s1.38-.3 1.83-.9c.45-.6.68-1.45.68-2.54a3.7 3.7 0 0 0-.7-2.35 2.2 2.2 0 0 0-1.83-.9c-.75 0-1.35.29-1.8.88a4.1 4.1 0 0 0-.7 2.55Zm8.44-4.52h1.43l.04.98a3.27 3.27 0 0 1 2.63-1.14c1.23 0 2.08.47 2.53 1.42a3.35 3.35 0 0 1 2.82-1.42c1.94 0 2.93 1.03 2.96 3.08v5.93h-1.51v-5.84c0-.63-.15-1.1-.44-1.42-.28-.3-.77-.47-1.45-.47-.56 0-1.03.17-1.4.5-.37.34-.59.8-.65 1.36v5.87h-1.52v-5.8c0-1.28-.63-1.93-1.9-1.93-.99 0-1.66.43-2.03 1.27v6.46h-1.51v-8.85Zm16.34 0v8.85h-1.51v-8.85h1.51Zm-1.64-2.34a.9.9 0 0 1 .23-.62c.15-.17.37-.26.67-.26.3 0 .52.09.67.26a.9.9 0 0 1 .23.62c0 .24-.08.45-.23.61a.89.89 0 0 1-.67.25c-.3 0-.52-.09-.67-.25a.87.87 0 0 1-.22-.61Zm9.22 8.84c0-.4-.15-.73-.46-.95-.3-.23-.84-.42-1.61-.59a7.62 7.62 0 0 1-1.83-.58 2.6 2.6 0 0 1-1-.82c-.21-.32-.32-.7-.32-1.13 0-.72.3-1.34.92-1.84a3.6 3.6 0 0 1 2.35-.75c1 0 1.82.26 2.45.78.62.51.94 1.18.94 1.98h-1.53c0-.41-.17-.77-.53-1.07-.35-.3-.79-.45-1.32-.45-.56 0-.99.12-1.3.36-.31.24-.46.55-.46.94 0 .37.14.64.43.83.29.18.81.36 1.57.53.75.17 1.36.37 1.83.6.47.24.82.52 1.05.85.22.33.34.73.34 1.2 0 .8-.32 1.43-.95 1.9-.63.48-1.46.72-2.47.72a4.5 4.5 0 0 1-1.88-.38 3.1 3.1 0 0 1-1.28-1.05c-.3-.45-.46-.93-.46-1.46h1.51c.03.51.23.91.61 1.21.38.3.88.45 1.5.45.58 0 1.04-.12 1.38-.35.35-.23.52-.54.52-.93Zm7.17 2.5c-1.2 0-2.18-.38-2.94-1.17a4.38 4.38 0 0 1-1.13-3.16v-.28c0-.87.17-1.66.5-2.35.34-.69.81-1.23 1.42-1.62a3.6 3.6 0 0 1 1.96-.58 3.3 3.3 0 0 1 2.68 1.14c.64.75.96 1.84.96 3.25v.63h-6c.02.87.28 1.57.76 2.11.5.54 1.11.8 1.87.8.53 0 .99-.1 1.36-.32.37-.22.7-.5.97-.87l.92.72a3.72 3.72 0 0 1-3.33 1.7Zm-.2-7.92a2 2 0 0 0-1.53.67 3.23 3.23 0 0 0-.77 1.87h4.44v-.12a2.88 2.88 0 0 0-.63-1.78 1.9 1.9 0 0 0-1.5-.64Zm-90.34 1.45v.75c0 1.17-.2 2.18-.59 3.05-.4.87-.95 1.54-1.67 2a4.6 4.6 0 0 1-2.52.68c-.94 0-1.77-.23-2.5-.69a4.57 4.57 0 0 1-1.69-1.97 7.2 7.2 0 0 1-.62-2.96v-.86c0-1.15.2-2.16.6-3.03.4-.88.96-1.55 1.7-2.02.72-.46 1.55-.7 2.5-.7s1.79.23 2.52.7a4.44 4.44 0 0 1 1.68 2c.4.87.59 1.89.59 3.05Zm-1.56.87v-.89c0-1.4-.29-2.49-.86-3.25a2.8 2.8 0 0 0-2.38-1.13c-1 0-1.77.38-2.34 1.13a5.2 5.2 0 0 0-.88 3.15V16c0 1.37.29 2.44.86 3.22a2.8 2.8 0 0 0 2.38 1.18 2.8 2.8 0 0 0 2.36-1.11c.55-.74.84-1.8.86-3.17Zm11.16.98v.14a5.3 5.3 0 0 1-.92 3.26 2.97 2.97 0 0 1-2.5 1.23 3.25 3.25 0 0 1-2.55-1.02v4.26h-1.51V12.73h1.38l.08.98a3.12 3.12 0 0 1 2.57-1.14c1.06 0 1.9.4 2.52 1.2.62.8.93 1.92.93 3.34Zm-1.51-.03c0-1-.22-1.78-.64-2.36a2.06 2.06 0 0 0-1.75-.87c-.92 0-1.6.41-2.07 1.22v4.23c.46.8 1.15 1.2 2.08 1.2.73 0 1.3-.28 1.73-.86.43-.57.65-1.43.65-2.56Zm7.11 4.66a3.9 3.9 0 0 1-2.93-1.18 4.38 4.38 0 0 1-1.13-3.16v-.28c0-.87.17-1.66.5-2.35.34-.69.8-1.23 1.41-1.62.6-.38 1.26-.58 1.96-.58 1.15 0 2.05.38 2.69 1.14.64.75.95 1.84.95 3.25v.63h-6c.03.87.28 1.57.77 2.11.49.54 1.1.8 1.86.8.54 0 .99-.1 1.36-.32.37-.22.7-.5.97-.87l.93.72a3.72 3.72 0 0 1-3.34 1.7Zm-.19-7.93c-.6 0-1.12.22-1.54.67a3.23 3.23 0 0 0-.77 1.87h4.44v-.12a2.88 2.88 0 0 0-.62-1.78 1.9 1.9 0 0 0-1.5-.64Zm5.4-1.08h1.43l.05 1.12a3.23 3.23 0 0 1 2.65-1.28c1.87 0 2.82 1.05 2.83 3.16v5.85h-1.51v-5.86c0-.63-.15-1.1-.44-1.4-.29-.31-.73-.47-1.34-.47-.49 0-.92.13-1.3.4-.36.26-.65.6-.86 1.03v6.3h-1.51v-8.85ZM38.57 9.68l1.88 8.15.23 1.56.34-1.41 2.36-8.3h1.32l2.3 8.3.33 1.44.25-1.6 1.85-8.14h1.58l-2.88 11.9h-1.44l-2.45-8.67-.2-.91-.18.9-2.55 8.68h-1.43L37 9.68h1.57Zm15.6 3.05v8.85h-1.52v-8.85h1.52Zm-1.64-2.34a.9.9 0 0 1 .22-.62c.15-.17.38-.26.67-.26.3 0 .52.09.67.26a.9.9 0 0 1 .23.62c0 .24-.08.45-.23.61-.15.16-.37.25-.67.25-.3 0-.52-.09-.67-.25a.87.87 0 0 1-.22-.61Zm4.06 2.34h1.43l.05 1.12a3.23 3.23 0 0 1 2.65-1.28c1.88 0 2.82 1.05 2.84 3.16v5.85h-1.52v-5.86c0-.63-.15-1.1-.44-1.4-.28-.31-.73-.47-1.34-.47-.49 0-.92.13-1.29.4-.37.26-.66.6-.87 1.03v6.3h-1.5v-8.85Zm8.88 4.47v-.12c0-1.36.32-2.45.97-3.27a3.06 3.06 0 0 1 2.53-1.24c1.03 0 1.85.35 2.46 1.06v-4.6h1.51v12.55h-1.39l-.07-.95a3.08 3.08 0 0 1-2.53 1.11 3.03 3.03 0 0 1-2.5-1.26 5.23 5.23 0 0 1-.98-3.28Zm1.52.05c0 1 .2 1.79.62 2.36.41.56.98.85 1.72.85a2.2 2.2 0 0 0 2.1-1.3V15.1a2.23 2.23 0 0 0-2.09-1.25c-.74 0-1.32.29-1.73.86a4.31 4.31 0 0 0-.63 2.54Zm7.9-.07v-.1c0-.87.17-1.65.51-2.34a3.81 3.81 0 0 1 3.51-2.17c1.2 0 2.18.42 2.93 1.25a4.8 4.8 0 0 1 1.12 3.33v.1c0 .86-.17 1.64-.5 2.32a3.76 3.76 0 0 1-3.53 2.17c-1.2 0-2.18-.42-2.92-1.25a4.78 4.78 0 0 1-1.12-3.31Zm1.53.07c0 .98.22 1.77.68 2.36.45.6 1.06.9 1.83.9s1.38-.3 1.83-.9c.45-.6.68-1.45.68-2.54 0-.97-.23-1.75-.69-2.35a2.2 2.2 0 0 0-1.84-.9c-.74 0-1.35.29-1.8.88a4.1 4.1 0 0 0-.7 2.55Zm14.17-4.52 2.1 6.76 1.71-6.76h1.51l-2.57 8.85H92.1l-2.16-6.7-2.1 6.7h-1.22l-2.57-8.85h1.5l1.75 6.62 2.06-6.62h1.22Z"/><path d="M149.43 16.92h-2.8v4.66h-1.58V9.68h4.4c1.3 0 2.33.33 3.07 1 .73.66 1.1 1.54 1.1 2.63 0 1.16-.36 2.05-1.08 2.67-.72.63-1.76.94-3.1.94Zm-2.8-5.95v4.66h2.82c.84 0 1.49-.2 1.93-.59.45-.4.67-.96.67-1.7a2.2 2.2 0 0 0-.67-1.7 2.65 2.65 0 0 0-1.84-.67h-2.91Zm13.04 1.71v1.41a4.55 4.55 0 0 0-.74-.06c-1 0-1.67.43-2.02 1.27v6.28h-1.52v-8.85h1.48l.02 1.03c.5-.8 1.2-1.19 2.11-1.19.3 0 .52.04.67.11Zm.83 4.5v-.1c0-.87.17-1.65.51-2.34a3.8 3.8 0 0 1 3.51-2.17c1.2 0 2.18.42 2.93 1.25a4.8 4.8 0 0 1 1.11 3.33v.1c0 .86-.16 1.64-.5 2.32a3.75 3.75 0 0 1-3.52 2.17c-1.2 0-2.18-.42-2.92-1.25a4.78 4.78 0 0 1-1.12-3.31Zm1.52.07c0 .98.23 1.77.69 2.36.45.6 1.06.9 1.83.9s1.38-.3 1.83-.9c.45-.6.68-1.45.68-2.54a3.7 3.7 0 0 0-.7-2.35 2.2 2.2 0 0 0-1.83-.9c-.75 0-1.35.29-1.8.88a4.1 4.1 0 0 0-.7 2.55Zm8.44-4.52h1.43l.04.98a3.27 3.27 0 0 1 2.63-1.14c1.23 0 2.08.47 2.53 1.42a3.35 3.35 0 0 1 2.82-1.42c1.94 0 2.93 1.03 2.96 3.08v5.93h-1.51v-5.84c0-.63-.15-1.1-.44-1.42-.28-.3-.77-.47-1.45-.47-.56 0-1.03.17-1.4.5-.37.34-.59.8-.65 1.36v5.87h-1.52v-5.8c0-1.28-.63-1.93-1.9-1.93-.99 0-1.66.43-2.03 1.27v6.46h-1.51v-8.85Zm16.34 0v8.85h-1.51v-8.85h1.51Zm-1.64-2.34a.9.9 0 0 1 .23-.62c.15-.17.37-.26.67-.26.3 0 .52.09.67.26a.9.9 0 0 1 .23.62c0 .24-.08.45-.23.61a.89.89 0 0 1-.67.25c-.3 0-.52-.09-.67-.25a.87.87 0 0 1-.22-.61Zm9.22 8.84c0-.4-.15-.73-.46-.95-.3-.23-.84-.42-1.61-.59a7.62 7.62 0 0 1-1.83-.58 2.6 2.6 0 0 1-1-.82c-.21-.32-.32-.7-.32-1.13 0-.72.3-1.34.92-1.84a3.6 3.6 0 0 1 2.35-.75c1 0 1.82.26 2.45.78.62.51.94 1.18.94 1.98h-1.53c0-.41-.17-.77-.53-1.07-.35-.3-.79-.45-1.32-.45-.56 0-.99.12-1.3.36-.31.24-.46.55-.46.94 0 .37.14.64.43.83.29.18.81.36 1.57.53.75.17 1.36.37 1.83.6.47.24.82.52 1.05.85.22.33.34.73.34 1.2 0 .8-.32 1.43-.95 1.9-.63.48-1.46.72-2.47.72a4.5 4.5 0 0 1-1.88-.38 3.1 3.1 0 0 1-1.28-1.05c-.3-.45-.46-.93-.46-1.46h1.51c.03.51.23.91.61 1.21.38.3.88.45 1.5.45.58 0 1.04-.12 1.38-.35.35-.23.52-.54.52-.93Zm7.17 2.5c-1.2 0-2.18-.38-2.94-1.17a4.38 4.38 0 0 1-1.13-3.16v-.28c0-.87.17-1.66.5-2.35.34-.69.81-1.23 1.42-1.62a3.6 3.6 0 0 1 1.96-.58 3.3 3.3 0 0 1 2.68 1.14c.64.75.96 1.84.96 3.25v.63h-6c.02.87.28 1.57.76 2.11.5.54 1.11.8 1.87.8.53 0 .99-.1 1.36-.32.37-.22.7-.5.97-.87l.92.72a3.72 3.72 0 0 1-3.33 1.7Zm-.2-7.92a2 2 0 0 0-1.53.67 3.23 3.23 0 0 0-.77 1.87h4.44v-.12a2.88 2.88 0 0 0-.63-1.78 1.9 1.9 0 0 0-1.5-.64Zm-90.34 1.45v.75c0 1.17-.2 2.18-.59 3.05-.4.87-.95 1.54-1.67 2a4.6 4.6 0 0 1-2.52.68c-.94 0-1.77-.23-2.5-.69a4.57 4.57 0 0 1-1.69-1.97 7.2 7.2 0 0 1-.62-2.96v-.86c0-1.15.2-2.16.6-3.03.4-.88.96-1.55 1.7-2.02.72-.46 1.55-.7 2.5-.7s1.79.23 2.52.7a4.44 4.44 0 0 1 1.68 2c.4.87.59 1.89.59 3.05Zm-1.56.87v-.89c0-1.4-.29-2.49-.86-3.25a2.8 2.8 0 0 0-2.38-1.13c-1 0-1.77.38-2.34 1.13a5.2 5.2 0 0 0-.88 3.15V16c0 1.37.29 2.44.86 3.22a2.8 2.8 0 0 0 2.38 1.18 2.8 2.8 0 0 0 2.36-1.11c.55-.74.84-1.8.86-3.17Zm11.16.98v.14a5.3 5.3 0 0 1-.92 3.26 2.97 2.97 0 0 1-2.5 1.23 3.25 3.25 0 0 1-2.55-1.02v4.26h-1.51V12.73h1.38l.08.98a3.12 3.12 0 0 1 2.57-1.14c1.06 0 1.9.4 2.52 1.2.62.8.93 1.92.93 3.34Zm-1.51-.03c0-1-.22-1.78-.64-2.36a2.06 2.06 0 0 0-1.75-.87c-.92 0-1.6.41-2.07 1.22v4.23c.46.8 1.15 1.2 2.08 1.2.73 0 1.3-.28 1.73-.86.43-.57.65-1.43.65-2.56Zm7.11 4.66a3.9 3.9 0 0 1-2.93-1.18 4.38 4.38 0 0 1-1.13-3.16v-.28c0-.87.17-1.66.5-2.35.34-.69.8-1.23 1.41-1.62.6-.38 1.26-.58 1.96-.58 1.15 0 2.05.38 2.69 1.14.64.75.95 1.84.95 3.25v.63h-6c.03.87.28 1.57.77 2.11.49.54 1.1.8 1.86.8.54 0 .99-.1 1.36-.32.37-.22.7-.5.97-.87l.93.72a3.72 3.72 0 0 1-3.34 1.7Zm-.19-7.93c-.6 0-1.12.22-1.54.67a3.23 3.23 0 0 0-.77 1.87h4.44v-.12a2.88 2.88 0 0 0-.62-1.78 1.9 1.9 0 0 0-1.5-.64Zm5.4-1.08h1.43l.05 1.12a3.23 3.23 0 0 1 2.65-1.28c1.87 0 2.82 1.05 2.83 3.16v5.85h-1.51v-5.86c0-.63-.15-1.1-.44-1.4-.29-.31-.73-.47-1.34-.47-.49 0-.92.13-1.3.4-.36.26-.65.6-.86 1.03v6.3h-1.51v-8.85ZM38.57 9.68l1.88 8.15.23 1.56.34-1.41 2.36-8.3h1.32l2.3 8.3.33 1.44.25-1.6 1.85-8.14h1.58l-2.88 11.9h-1.44l-2.45-8.67-.2-.91-.18.9-2.55 8.68h-1.43L37 9.68h1.57Zm15.6 3.05v8.85h-1.52v-8.85h1.52Zm-1.64-2.34a.9.9 0 0 1 .22-.62c.15-.17.38-.26.67-.26.3 0 .52.09.67.26a.9.9 0 0 1 .23.62c0 .24-.08.45-.23.61-.15.16-.37.25-.67.25-.3 0-.52-.09-.67-.25a.87.87 0 0 1-.22-.61Zm4.06 2.34h1.43l.05 1.12a3.23 3.23 0 0 1 2.65-1.28c1.88 0 2.82 1.05 2.84 3.16v5.85h-1.52v-5.86c0-.63-.15-1.1-.44-1.4-.28-.31-.73-.47-1.34-.47-.49 0-.92.13-1.29.4-.37.26-.66.6-.87 1.03v6.3h-1.5v-8.85Zm8.88 4.47v-.12c0-1.36.32-2.45.97-3.27a3.06 3.06 0 0 1 2.53-1.24c1.03 0 1.85.35 2.46 1.06v-4.6h1.51v12.55h-1.39l-.07-.95a3.08 3.08 0 0 1-2.53 1.11 3.03 3.03 0 0 1-2.5-1.26 5.23 5.23 0 0 1-.98-3.28Zm1.52.05c0 1 .2 1.79.62 2.36.41.56.98.85 1.72.85a2.2 2.2 0 0 0 2.1-1.3V15.1a2.23 2.23 0 0 0-2.09-1.25c-.74 0-1.32.29-1.73.86a4.31 4.31 0 0 0-.63 2.54Zm7.9-.07v-.1c0-.87.17-1.65.51-2.34a3.81 3.81 0 0 1 3.51-2.17c1.2 0 2.18.42 2.93 1.25a4.8 4.8 0 0 1 1.12 3.33v.1c0 .86-.17 1.64-.5 2.32a3.76 3.76 0 0 1-3.53 2.17c-1.2 0-2.18-.42-2.92-1.25a4.78 4.78 0 0 1-1.12-3.31Zm1.53.07c0 .98.22 1.77.68 2.36.45.6 1.06.9 1.83.9s1.38-.3 1.83-.9c.45-.6.68-1.45.68-2.54 0-.97-.23-1.75-.69-2.35a2.2 2.2 0 0 0-1.84-.9c-.74 0-1.35.29-1.8.88a4.1 4.1 0 0 0-.7 2.55Zm14.17-4.52 2.1 6.76 1.71-6.76h1.51l-2.57 8.85H92.1l-2.16-6.7-2.1 6.7h-1.22l-2.57-8.85h1.5l1.75 6.62 2.06-6.62h1.22Z"/></g></svg>