<svg xmlns="http://www.w3.org/2000/svg" viewBox="0 0 177 35"><g fill="none" stroke-linecap="round" stroke-linejoin="round"><path stroke="#0A8" stroke-width="2" d="M114.04 28v6l6-6m7 6v-6l6 6v-6m12 0v6l3-3v3l3-3v-3m-27 6v-6l-6 6h3m37 0v-6l-6 6h3m21 0h-6v-6h6m-15 6v-6h6v3h-3l3 3m-25-6h-6v6h6v-3h-3m34 0h3"/><path stroke="#666" stroke-miterlimit="3" d="M105.54 28.5v3h1a1 1 0 0 0 1-1h0a1 1 0 0 0-1-1h-1m4 4h0a1 1 0 0 0 1-1v-3 2h-1a1 1 0 0 1-1-1v-1"/><path stroke="#88a" stroke-width="6" d="M3 21V3h18v9h-9m81.04-9H75.06v8.99h17.98v8.99H75.06M48 8V3h18v9h-9l9 9m-36-.02V3l17.98 17.98h-9M120 21h-18V3h18m-9 9h9m54.04-9h-17.98v8.99h17.98v8.99h-17.98M129 21V3h18v9h-9l9 9"/></g></svg>
