<svg xmlns="http://www.w3.org/2000/svg" style="isolation:isolate" viewBox="0 0 206 34"><path fill="none" d="M0 0h206v34H0z"/><path fill="#FFF" d="M0 0h34v34H0z"/><path d="M1 1h32v32H1V1Z"/><g fill="#FFF"><path d="M31 2h1v1h-1v1h1v1h-1V4h-1v1h-1V4h1V3h-1V2h1v1h1V2Z"/><path fill-rule="evenodd" d="M25 2h3v3h-3V2Zm1 1h1v1h-1V3Z"/><path d="M21 4h3v1h-3V4ZM2 2h3v3H2V2Z"/></g><path fill="#FFF" d="M2 6h30v26H2V6Z"/><path fill="#FFF" d="M11 17v5h1v2h1v2h1v2h8v-2h1v-3h1V10h-2v6h-9v1h-2Z"/><path fill-rule="evenodd" d="M12 16h1v-1h8v-5h1V9h2v1h1v13h-1v3h-1v3H13v-3h-1v-2h-1v-2h-1v-5h1v-1h1Zm-1 6v-5h1v2h1v-3h2v1h1v-1h2v1h1v-1h2v1h1v-7h2v13h-1v3h-1v2h-8v-2h-1v-2h-1v-2h-1Z"/><path fill="#FFF" stroke="#FFF" stroke-linecap="round" stroke-linejoin="round" stroke-miterlimit="3" stroke-width="2" d="M149.43 12.9h-2.8v4.65h-1.58V5.65h4.4q1.96 0 3.07 1h0q1.1 1 1.1 2.64h0q0 1.73-1.08 2.67h0q-1.08.93-3.1.93h0Zm-2.8-5.96v4.67h2.82q1.26 0 1.93-.6h0q.67-.58.67-1.7h0q0-1.07-.67-1.7h0q-.67-.64-1.84-.67h0-2.91Zm13.04 1.72v1.4h0q-.34-.05-.74-.05h0q-1.49 0-2.02 1.27h0v6.27h-1.52V8.71h1.48l.02 1.02h0q.75-1.18 2.11-1.18h0q.44 0 .67.11h0Zm.83 4.5v-.11h0q0-1.3.51-2.34h0q.51-1.04 1.43-1.6h0q.91-.56 2.08-.56h0q1.81 0 2.93 1.25h0q1.11 1.25 1.11 3.32h0v.11h0q0 1.3-.5 2.32h0q-.49 1.02-1.4 1.6h0q-.93.57-2.12.57h0q-1.8 0-2.92-1.25h0q-1.12-1.25-1.12-3.31h0Zm1.52.07h0q0 1.47.69 2.36h0q.68.9 1.83.9h0q1.15 0 1.83-.91h0q.68-.9.68-2.53h0q0-1.46-.7-2.36h0q-.68-.9-1.83-.9h0q-1.12 0-1.8.89h0q-.7.9-.7 2.55Zm8.44-4.52h1.43l.04.98h0q.97-1.14 2.63-1.14h0q1.85 0 2.53 1.42h0q.44-.64 1.15-1.03h0q.7-.4 1.67-.4h0q2.91 0 2.96 3.09h0v5.92h-1.51v-5.83h0q0-.95-.44-1.42h0q-.43-.47-1.45-.47h0q-.84 0-1.4.5h0q-.56.5-.65 1.36h0v5.86h-1.52v-5.8h0q0-1.92-1.9-1.92h0q-1.48 0-2.03 1.27h0v6.45h-1.51V8.71Zm16.34 0v8.84h-1.51V8.71h1.51Zm-1.64-2.35h0q0-.36.23-.62h0q.23-.25.67-.25h0q.44 0 .67.25h0q.23.26.23.63h0q0 .36-.23.6h0q-.23.25-.67.25h0q-.44 0-.67-.24h0q-.22-.25-.22-.62Zm9.22 8.85h0q0-.62-.46-.96h0q-.46-.33-1.61-.58h0q-1.15-.24-1.83-.59h0q-.67-.34-1-.81h0q-.32-.48-.32-1.13h0q0-1.09.92-1.84h0q.92-.75 2.35-.75h0q1.51 0 2.45.77h0q.94.78.94 1.99h0-1.53 0q0-.62-.53-1.07h0q-.52-.45-1.32-.45h0q-.83 0-1.3.36h0q-.46.36-.46.94h0q0 .55.43.82h0q.43.28 1.57.54h0q1.13.25 1.83.6h0q.7.35 1.05.85h0q.34.49.34 1.2h0q0 1.19-.95 1.9h0q-.95.72-2.47.72h0q-1.06 0-1.88-.38h0q-.82-.38-1.28-1.05h0q-.46-.67-.46-1.46h1.51q.04.76.61 1.2h0q.57.45 1.5.45h0q.86 0 1.38-.34h0q.52-.35.52-.93Zm7.17 2.5h0q-1.8 0-2.94-1.18h0q-1.13-1.18-1.13-3.15h0v-.28h0q0-1.32.5-2.35h0q.51-1.04 1.42-1.62h0q.9-.58 1.96-.58h0q1.72 0 2.68 1.13h0q.96 1.14.96 3.26h0v.63h-6 0q.03 1.3.76 2.1h0q.74.81 1.87.81h0q.8 0 1.36-.32h0q.55-.33.97-.87h0l.92.72h0q-1.1 1.7-3.33 1.7Zm-.2-7.92h0q-.91 0-1.53.67h0q-.62.66-.77 1.86h4.44v-.11h0q-.07-1.15-.63-1.79h0q-.55-.63-1.5-.63Zm-90.34 1.45v.75h0q0 1.75-.59 3.05h0q-.59 1.3-1.67 1.99h0q-1.08.69-2.52.69h0q-1.41 0-2.5-.7h0q-1.09-.68-1.69-1.96h0q-.6-1.28-.62-2.97h0v-.85h0q0-1.72.6-3.04h0q.6-1.31 1.7-2.01h0q1.08-.7 2.5-.7h0q1.42 0 2.52.7h0q1.09.68 1.68 2h0q.59 1.3.59 3.05h0Zm-1.56.86v-.88h0q0-2.12-.86-3.25h0q-.85-1.13-2.38-1.13h0q-1.49 0-2.34 1.13h0q-.86 1.13-.88 3.14h0V12h0q0 2.05.86 3.22h0q.86 1.17 2.38 1.17h0q1.52 0 2.36-1.1h0q.83-1.11.86-3.18h0Zm11.16 1v.13h0q0 2.02-.92 3.25h0q-.93 1.24-2.5 1.24h0q-1.62 0-2.55-1.02h0v4.25h-1.51V8.71h1.38l.08.98h0q.92-1.14 2.57-1.14h0q1.6 0 2.52 1.2h0q.93 1.2.93 3.34h0Zm-1.51-.04h0q0-1.5-.64-2.36h0q-.64-.87-1.75-.87h0q-1.38 0-2.07 1.22h0v4.22h0q.68 1.21 2.08 1.21h0q1.1 0 1.73-.86h0q.65-.86.65-2.56Zm7.11 4.66h0q-1.8 0-2.93-1.18h0q-1.13-1.19-1.13-3.16h0v-.28h0q0-1.32.5-2.35h0q.5-1.04 1.41-1.62h0q.9-.58 1.96-.58h0q1.73 0 2.69 1.13h0q.95 1.14.95 3.26h0v.63h-6 0q.04 1.3.77 2.1h0q.73.81 1.86.81h0q.8 0 1.36-.32h0q.56-.33.97-.87h0l.93.72h0q-1.11 1.7-3.34 1.7Zm-.19-7.93h0q-.91 0-1.54.67h0q-.62.66-.77 1.86h4.44v-.11h0q-.06-1.15-.62-1.79h0q-.56-.63-1.5-.63Zm5.4-1.08h1.43l.05 1.11h0q1.01-1.27 2.65-1.27h0q2.8 0 2.83 3.16h0v5.84h-1.51V11.7h0q-.01-.96-.44-1.41h0q-.43-.46-1.34-.46h0q-.74 0-1.3.4h0q-.55.38-.86 1.02h0v6.3h-1.51V8.71ZM38.57 5.65l1.88 8.15.23 1.57.34-1.41 2.36-8.3h1.32l2.3 8.3.33 1.43.25-1.6 1.85-8.14h1.58l-2.88 11.9h-1.44l-2.45-8.67-.2-.9-.18.9-2.55 8.67h-1.43L37 5.65h1.57Zm15.6 3.06v8.84h-1.52V8.71h1.52Zm-1.64-2.35h0q0-.36.22-.62h0q.23-.25.67-.25h0q.44 0 .67.25h0q.23.26.23.63h0q0 .36-.23.6h0q-.23.25-.67.25h0q-.44 0-.67-.24h0q-.22-.25-.22-.62Zm4.06 2.35h1.43l.05 1.11h0q1.02-1.27 2.65-1.27h0q2.81 0 2.84 3.16h0v5.84h-1.52V11.7h0q0-.96-.44-1.41h0q-.43-.46-1.34-.46h0q-.73 0-1.29.4h0q-.56.38-.87 1.02h0v6.3h-1.5V8.71Zm8.88 4.46v-.11h0q0-2.04.97-3.28h0q.96-1.23 2.53-1.23h0q1.55 0 2.46 1.06h0V5h1.51v12.55h-1.39l-.07-.95h0q-.9 1.12-2.53 1.12h0q-1.54 0-2.5-1.26h0q-.98-1.26-.98-3.29h0Zm1.52.06h0q0 1.5.62 2.35h0q.62.85 1.72.85h0q1.44 0 2.1-1.29h0v-4.06h0q-.68-1.25-2.09-1.25h0q-1.11 0-1.73.86h0q-.63.86-.63 2.54Zm7.9-.07v-.11h0q0-1.3.51-2.34h0q.52-1.04 1.43-1.6h0q.91-.56 2.08-.56h0q1.81 0 2.93 1.25h0q1.12 1.25 1.12 3.32h0v.11h0q0 1.3-.5 2.32h0q-.5 1.02-1.42 1.6h0q-.92.57-2.11.57h0q-1.8 0-2.92-1.25h0q-1.12-1.25-1.12-3.31h0Zm1.53.07h0q0 1.47.68 2.36h0q.68.9 1.83.9h0q1.15 0 1.83-.91h0q.68-.9.68-2.53h0q0-1.46-.69-2.36h0q-.7-.9-1.84-.9h0q-1.12 0-1.8.89h0q-.7.9-.7 2.55Zm14.17-4.52 2.1 6.76L94.4 8.7h1.51l-2.57 8.84H92.1l-2.16-6.7-2.1 6.7h-1.22L84.05 8.7h1.5l1.75 6.62 2.06-6.62h1.22Z"/><path d="M149.43 12.9h-2.8v4.65h-1.58V5.65h4.4q1.96 0 3.07 1 1.1 1 1.1 2.64 0 1.73-1.08 2.67-1.08.93-3.1.93Zm-2.8-5.96v4.67h2.82q1.26 0 1.93-.6.67-.58.67-1.7 0-1.07-.67-1.7-.67-.64-1.84-.67h-2.91Zm13.04 1.72v1.4q-.34-.05-.74-.05-1.49 0-2.02 1.27v6.27h-1.52V8.71h1.48l.02 1.02q.75-1.18 2.11-1.18.44 0 .67.11Zm.83 4.5v-.11q0-1.3.51-2.34.51-1.04 1.43-1.6.91-.56 2.08-.56 1.81 0 2.93 1.25 1.11 1.25 1.11 3.32v.11q0 1.3-.5 2.32-.49 1.02-1.4 1.6-.93.57-2.12.57-1.8 0-2.92-1.25-1.12-1.25-1.12-3.31Zm1.52.07q0 1.47.69 2.36.68.9 1.83.9t1.83-.91q.68-.9.68-2.53 0-1.46-.7-2.36-.68-.9-1.83-.9-1.12 0-1.8.89-.7.9-.7 2.55Zm8.44-4.52h1.43l.04.98q.97-1.14 2.63-1.14 1.85 0 2.53 1.42.44-.64 1.15-1.03.7-.4 1.67-.4 2.91 0 2.96 3.09v5.92h-1.51v-5.83q0-.95-.44-1.42-.43-.47-1.45-.47-.84 0-1.4.5-.56.5-.65 1.36v5.86h-1.52v-5.8q0-1.92-1.9-1.92-1.48 0-2.03 1.27v6.45h-1.51V8.71Zm16.34 0v8.84h-1.51V8.71h1.51Zm-1.64-2.35q0-.36.23-.62.23-.25.67-.25.44 0 .67.25.23.26.23.63 0 .36-.23.6-.23.25-.67.25-.44 0-.67-.24-.22-.25-.22-.62Zm9.22 8.85q0-.62-.46-.96-.46-.33-1.61-.58-1.15-.24-1.83-.59-.67-.34-1-.81-.32-.48-.32-1.13 0-1.09.92-1.84t2.35-.75q1.51 0 2.45.77.94.78.94 1.99h-1.53q0-.62-.53-1.07-.52-.45-1.32-.45-.83 0-1.3.36-.46.36-.46.94 0 .55.43.82.43.28 1.57.54 1.13.25 1.83.6.7.35 1.05.85.34.49.34 1.2 0 1.19-.95 1.9-.95.72-2.47.72-1.06 0-1.88-.38-.82-.38-1.28-1.05-.46-.67-.46-1.46h1.51q.04.76.61 1.2.57.45 1.5.45.86 0 1.38-.34.52-.35.52-.93Zm7.17 2.5q-1.8 0-2.94-1.18-1.13-1.18-1.13-3.15v-.28q0-1.32.5-2.35.51-1.04 1.42-1.62.9-.58 1.96-.58 1.72 0 2.68 1.13.96 1.14.96 3.26v.63h-6q.03 1.3.76 2.1.74.81 1.87.81.8 0 1.36-.32.55-.33.97-.87l.92.72q-1.1 1.7-3.33 1.7Zm-.2-7.92q-.91 0-1.53.67-.62.66-.77 1.86h4.44v-.11q-.07-1.15-.63-1.79-.55-.63-1.5-.63Zm-90.34 1.45v.75q0 1.75-.59 3.05-.59 1.3-1.67 1.99t-2.52.69q-1.41 0-2.5-.7-1.09-.68-1.69-1.96-.6-1.28-.62-2.97v-.85q0-1.72.6-3.04.6-1.31 1.7-2.01 1.08-.7 2.5-.7t2.52.7q1.09.68 1.68 2 .59 1.3.59 3.05Zm-1.56.86v-.88q0-2.12-.86-3.25-.85-1.13-2.38-1.13-1.49 0-2.34 1.13-.86 1.13-.88 3.14V12q0 2.05.86 3.22.86 1.17 2.38 1.17t2.36-1.1q.83-1.11.86-3.18Zm11.16 1v.13q0 2.02-.92 3.25-.93 1.24-2.5 1.24-1.62 0-2.55-1.02v4.25h-1.51V8.71h1.38l.08.98q.92-1.14 2.57-1.14 1.6 0 2.52 1.2.93 1.2.93 3.34Zm-1.51-.04q0-1.5-.64-2.36-.64-.87-1.75-.87-1.38 0-2.07 1.22v4.22q.68 1.21 2.08 1.21 1.1 0 1.73-.86.65-.86.65-2.56Zm7.11 4.66q-1.8 0-2.93-1.18-1.13-1.19-1.13-3.16v-.28q0-1.32.5-2.35.5-1.04 1.41-1.62.9-.58 1.96-.58 1.73 0 2.69 1.13.95 1.14.95 3.26v.63h-6q.04 1.3.77 2.1.73.81 1.86.81.8 0 1.36-.32.56-.33.97-.87l.93.72q-1.11 1.7-3.34 1.7Zm-.19-7.93q-.91 0-1.54.67-.62.66-.77 1.86h4.44v-.11q-.06-1.15-.62-1.79-.56-.63-1.5-.63Zm5.4-1.08h1.43l.05 1.11q1.01-1.27 2.65-1.27 2.8 0 2.83 3.16v5.84h-1.51V11.7q-.01-.96-.44-1.41-.43-.46-1.34-.46-.74 0-1.3.4-.55.38-.86 1.02v6.3h-1.51V8.71ZM38.57 5.65l1.88 8.15.23 1.57.34-1.41 2.36-8.3h1.32l2.3 8.3.33 1.43.25-1.6 1.85-8.14h1.58l-2.88 11.9h-1.44l-2.45-8.67-.2-.9-.18.9-2.55 8.67h-1.43L37 5.65h1.57Zm15.6 3.06v8.84h-1.52V8.71h1.52Zm-1.64-2.35q0-.36.22-.62.23-.25.67-.25.44 0 .67.25.23.26.23.63 0 .36-.23.6-.23.25-.67.25-.44 0-.67-.24-.22-.25-.22-.62Zm4.06 2.35h1.43l.05 1.11q1.02-1.27 2.65-1.27 2.81 0 2.84 3.16v5.84h-1.52V11.7q0-.96-.44-1.41-.43-.46-1.34-.46-.73 0-1.29.4-.56.38-.87 1.02v6.3h-1.5V8.71Zm8.88 4.46v-.11q0-2.04.97-3.28.96-1.23 2.53-1.23 1.55 0 2.46 1.06V5h1.51v12.55h-1.39l-.07-.95q-.9 1.12-2.53 1.12-1.54 0-2.5-1.26-.98-1.26-.98-3.29Zm1.52.06q0 1.5.62 2.35.62.85 1.72.85 1.44 0 2.1-1.29v-4.06q-.68-1.25-2.09-1.25-1.11 0-1.73.86-.63.86-.63 2.54Zm7.9-.07v-.11q0-1.3.51-2.34.52-1.04 1.43-1.6.91-.56 2.08-.56 1.81 0 2.93 1.25t1.12 3.32v.11q0 1.3-.5 2.32-.5 1.02-1.42 1.6-.92.57-2.11.57-1.8 0-2.92-1.25-1.12-1.25-1.12-3.31Zm1.53.07q0 1.47.68 2.36.68.9 1.83.9t1.83-.91q.68-.9.68-2.53 0-1.46-.69-2.36-.7-.9-1.84-.9-1.12 0-1.8.89-.7.9-.7 2.55Zm14.17-4.52 2.1 6.76L94.4 8.7h1.51l-2.57 8.84H92.1l-2.16-6.7-2.1 6.7h-1.22L84.05 8.7h1.5l1.75 6.62 2.06-6.62h1.22Z"/><g fill="none" stroke-linecap="round" stroke-linejoin="round"><path stroke="#0A8" stroke-width="2" d="M142 23v6l6-6m7 6v-6l6 6v-6m12 0v6l3-3v3l3-3v-3m-27 6v-6l-6 6h3m37 0v-6l-6 6h3m21 0h-6v-6h6m-15 6v-6h6v3h-3l3 3m-25-6h-6v6h6v-3h-3m34 0h3"/><path stroke="#666" stroke-miterlimit="3" d="M133.5 23.5v3h1a1 1 0 0 0 1-1h0a1 1 0 0 0-1-1h-1m4 4h0a1 1 0 0 0 1-1v-3 2h-1a1 1 0 0 1-1-1v-1"/></g></svg>
