<svg xmlns="http://www.w3.org/2000/svg" viewBox="0 0 132 35"><path fill="none" stroke="#0a8" stroke-linecap="round" stroke-linejoin="round" stroke-width="2" d="M69 28v6l6-6m7 6v-6l6 6v-6m12 0v6l3-3v3l3-3v-3m-27 6v-6l-6 6h3m37 0v-6l-6 6h3m21 0h-6v-6h6m-15 6v-6h6v3h-3l3 3m-25-6h-6v6h6v-3h-3m34 0h3"/><path fill="none" stroke="#666" stroke-linecap="round" stroke-linejoin="round" stroke-miterlimit="3" d="M60.5 28.5v3h1c.6 0 1-.4 1-1h0c0-.6-.4-1-1-1h-1m4 4h0c.6 0 1-.4 1-1v-3 2h-1a1 1 0 01-1-1v-1"/><path fill="none" stroke="#0aa" stroke-linecap="round" stroke-linejoin="round" stroke-miterlimit="3" stroke-width="6" d="M3 3h18m-9 9v9M30 3l9 6 9-6m-9 15v3m63 0H84V3h18m-9 9h9m-45 9V3h18v9h-9m63-9h-18v9h18v9h-18"/></svg>
