<svg xmlns="http://www.w3.org/2000/svg" fill="none" viewBox="0 0 32 32"><g filter="url(#a)"><path fill="url(#b)" d="M16.57 11.08h12.4c.74 0 1.34.6 1.34 1.34V28H16.57V11.08Z"/><path fill="url(#c)" d="M16.57 11.08h12.4c.74 0 1.34.6 1.34 1.34V28H16.57V11.08Z"/><path fill="url(#d)" d="M16.57 11.08h12.4c.74 0 1.34.6 1.34 1.34V28H16.57V11.08Z"/></g><path fill="url(#e)" d="M15.81 27.6h14.5v1.68h-.34l-.33.34H15.8V27.6Z"/><path fill="url(#f)" d="M15.81 27.6h14.5v1.68h-.34l-.33.34H15.8V27.6Z"/><path fill="url(#g)" d="M16.49 11.08a1 1 0 0 0-1.01 1v16.53h.67c0-.38.3-.68.68-.68h.67V11.08h-1.01Z"/><path fill="url(#h)" d="M16.49 11.08a1 1 0 0 0-1.01 1v16.53h.67c0-.38.3-.68.68-.68h.67V11.08h-1.01Z"/><g filter="url(#i)"><path fill="url(#j)" d="M16.49 27.26a1 1 0 0 0-1.01 1.01v.67c0 .56.45 1.02 1 1.02h13.1c.43 0 .73-.23.73-.68H16.83a.67.67 0 0 1 0-1.35H30.3v-.67H16.5Z"/></g><path fill="url(#k)" d="M10.44 7.04H21.9c.74 0 1.35.6 1.35 1.34v14.84H10.44V7.04Z"/><path fill="url(#l)" d="M10.44 7.04H21.9c.74 0 1.35.6 1.35 1.34v14.84H10.44V7.04Z"/><path fill="url(#m)" d="M10.44 7.04H21.9c.74 0 1.35.6 1.35 1.34v14.84H10.44V7.04Z"/><path fill="url(#n)" d="M8.75 23.56h14.5v1.68h-.34l-.34.34H8.75v-2.02Z"/><path fill="url(#o)" d="M8.75 23.56h14.5v1.68h-.34l-.34.34H8.75v-2.02Z"/><path fill="url(#p)" d="M9.43 7.04c-.56 0-1.02.45-1.02 1v16.53h.68c0-.37.3-.68.67-.68h.68V7.04H9.43Z"/><path fill="url(#q)" d="M9.43 7.04c-.56 0-1.02.45-1.02 1v16.53h.68c0-.37.3-.68.67-.68h.68V7.04H9.43Z"/><path fill="url(#r)" d="M9.43 7.04c-.56 0-1.02.45-1.02 1v16.53h.68c0-.37.3-.68.67-.68h.68V7.04H9.43Z"/><g filter="url(#s)"><path fill="url(#t)" d="M9.43 23.22c-.56 0-1.02.45-1.02 1.01v.67c0 .56.46 1.02 1.02 1.02H22.5c.44 0 .74-.23.74-.68H9.76a.67.67 0 0 1 0-1.35h13.49v-.67H9.43Z"/></g><g filter="url(#u)"><path fill="url(#v)" d="M3.28 4h12.39c.74 0 1.35.6 1.35 1.35v14.83H3.28V4Z"/><path fill="url(#w)" d="M3.28 4h12.39c.74 0 1.35.6 1.35 1.35v14.83H3.28V4Z"/></g><path fill="url(#x)" d="M2.52 20.52h14.5v1.68h-.34l-.34.34H2.52v-2.02Z"/><path fill="url(#y)" d="M2.52 20.52h14.5v1.68h-.34l-.34.34H2.52v-2.02Z"/><path fill="url(#z)" d="M3.2 4a1 1 0 0 0-1.01 1.01v16.52h.67c0-.38.3-.68.67-.68h.68V4H3.2Z"/><g filter="url(#A)"><path fill="url(#B)" d="M3.2 20.18a1 1 0 0 0-1.01 1.01v.67c0 .56.45 1.02 1 1.02h13.1c.43 0 .73-.23.73-.68H3.53a.67.67 0 1 1 0-1.35h13.49v-.67H3.2Z"/></g><defs><linearGradient id="b" x1="23.91" x2="23.91" y1="11.08" y2="27.26" gradientUnits="userSpaceOnUse"><stop stop-color="#56D1F3"/><stop offset="1" stop-color="#39ADF1"/></linearGradient><linearGradient id="c" x1="30.42" x2="29.09" y1="13.46" y2="13.65" gradientUnits="userSpaceOnUse"><stop offset=".01" stop-color="#7FECFF"/><stop offset="1" stop-color="#60DEFF" stop-opacity="0"/></linearGradient><linearGradient id="e" x1="16.64" x2="30.19" y1="28.89" y2="28.89" gradientUnits="userSpaceOnUse"><stop stop-color="#D5BCEB"/><stop offset="1" stop-color="#DCCCED"/><stop offset="1" stop-color="#E3D3F2"/></linearGradient><linearGradient id="f" x1="23.06" x2="23.06" y1="27.76" y2="28.71" gradientUnits="userSpaceOnUse"><stop stop-color="#9F84AE"/><stop offset="1" stop-color="#C5B1D6" stop-opacity="0"/></linearGradient><linearGradient id="g" x1="15.62" x2="17.2" y1="21.01" y2="21.02" gradientUnits="userSpaceOnUse"><stop stop-color="#44A3D2"/><stop offset="1" stop-color="#3C8FCC"/></linearGradient><linearGradient id="j" x1="16.44" x2="30.31" y1="29.26" y2="29.24" gradientUnits="userSpaceOnUse"><stop stop-color="#3769C5"/><stop offset="1" stop-color="#3666C3"/></linearGradient><linearGradient id="k" x1="16.84" x2="16.84" y1="7.04" y2="23.22" gradientUnits="userSpaceOnUse"><stop stop-color="#E13074"/><stop offset="1" stop-color="#E0334C"/></linearGradient><linearGradient id="l" x1="24.39" x2="22.56" y1="9.32" y2="9.38" gradientUnits="userSpaceOnUse"><stop offset=".41" stop-color="#F76594"/><stop offset="1" stop-color="#FA6295" stop-opacity="0"/></linearGradient><linearGradient id="n" x1="9.58" x2="23.13" y1="24.85" y2="24.85" gradientUnits="userSpaceOnUse"><stop stop-color="#D5BCEB"/><stop offset="1" stop-color="#DCCCED"/><stop offset="1" stop-color="#E3D3F2"/></linearGradient><linearGradient id="o" x1="16" x2="16" y1="23.72" y2="24.67" gradientUnits="userSpaceOnUse"><stop stop-color="#9F84AE"/><stop offset="1" stop-color="#C5B1D6" stop-opacity="0"/></linearGradient><linearGradient id="p" x1="8.55" x2="10.44" y1="16.97" y2="16.97" gradientUnits="userSpaceOnUse"><stop stop-color="#9A3E4F"/><stop offset="1" stop-color="#AA2C4D"/></linearGradient><linearGradient id="t" x1="9.38" x2="23.25" y1="25.22" y2="25.2" gradientUnits="userSpaceOnUse"><stop stop-color="#AB1F5C"/><stop offset="1" stop-color="#A51E5A"/></linearGradient><linearGradient id="v" x1="10.61" x2="10.61" y1="4" y2="20.18" gradientUnits="userSpaceOnUse"><stop stop-color="#A6E051"/><stop offset="1" stop-color="#74D891"/></linearGradient><linearGradient id="w" x1="17.12" x2="15.8" y1="6.38" y2="6.57" gradientUnits="userSpaceOnUse"><stop offset=".01" stop-color="#C0FA7C"/><stop offset="1" stop-color="#B0ED5B" stop-opacity="0"/></linearGradient><linearGradient id="x" x1="3.35" x2="16.89" y1="21.81" y2="21.81" gradientUnits="userSpaceOnUse"><stop stop-color="#D5BCEB"/><stop offset="1" stop-color="#DCCCED"/><stop offset="1" stop-color="#E3D3F2"/></linearGradient><linearGradient id="y" x1="9.77" x2="9.77" y1="20.68" y2="21.63" gradientUnits="userSpaceOnUse"><stop stop-color="#9F84AE"/><stop offset="1" stop-color="#C5B1D6" stop-opacity="0"/></linearGradient><linearGradient id="z" x1="2.33" x2="3.91" y1="13.93" y2="13.94" gradientUnits="userSpaceOnUse"><stop stop-color="#63B33B"/><stop offset="1" stop-color="#429B5B"/></linearGradient><linearGradient id="B" x1="3.15" x2="17.02" y1="22.18" y2="22.15" gradientUnits="userSpaceOnUse"><stop stop-color="#2E7671"/><stop offset="1" stop-color="#2E7172"/></linearGradient><radialGradient id="d" cx="0" cy="0" r="1" gradientTransform="matrix(6 0 0 5 17.41 27.26)" gradientUnits="userSpaceOnUse"><stop stop-color="#2E7CD5"/><stop offset="1" stop-color="#2E7CD5" stop-opacity="0"/></radialGradient><radialGradient id="h" cx="0" cy="0" r="1" gradientTransform="matrix(0 4 -2 0 17.5 25.63)" gradientUnits="userSpaceOnUse"><stop stop-color="#3163AE"/><stop offset="1" stop-color="#3163AE" stop-opacity="0"/></radialGradient><radialGradient id="m" cx="0" cy="0" r="1" gradientTransform="matrix(7 0 0 5 11 22.81)" gradientUnits="userSpaceOnUse"><stop stop-color="#B21940"/><stop offset="1" stop-color="#B21940" stop-opacity="0"/></radialGradient><radialGradient id="q" cx="0" cy="0" r="1" gradientTransform="matrix(0 -4 1 0 8.68 23.67)" gradientUnits="userSpaceOnUse"><stop stop-color="#9B3F51"/><stop offset="1" stop-color="#9B3F51" stop-opacity="0"/></radialGradient><radialGradient id="r" cx="0" cy="0" r="1" gradientTransform="matrix(0 3 -2 0 10.44 22.34)" gradientUnits="userSpaceOnUse"><stop offset=".27" stop-color="#8F163A"/><stop offset="1" stop-color="#8F163A" stop-opacity="0"/></radialGradient><filter id="a" width="13.74" height="17.02" x="16.57" y="11.08" color-interpolation-filters="sRGB" filterUnits="userSpaceOnUse"><feFlood flood-opacity="0" result="BackgroundImageFix"/><feBlend in="SourceGraphic" in2="BackgroundImageFix" result="shape"/><feColorMatrix in="SourceAlpha" result="hardAlpha" values="0 0 0 0 0 0 0 0 0 0 0 0 0 0 0 0 0 0 127 0"/><feOffset dy=".1"/><feGaussianBlur stdDeviation=".25"/><feComposite in2="hardAlpha" k2="-1" k3="1" operator="arithmetic"/><feColorMatrix values="0 0 0 0 0.32549 0 0 0 0 0.807843 0 0 0 0 0.933333 0 0 0 1 0"/><feBlend in2="shape" result="effect1_innerShadow_18_20855"/></filter><filter id="i" width="14.83" height="2.8" x="15.48" y="27.26" color-interpolation-filters="sRGB" filterUnits="userSpaceOnUse"><feFlood flood-opacity="0" result="BackgroundImageFix"/><feBlend in="SourceGraphic" in2="BackgroundImageFix" result="shape"/><feColorMatrix in="SourceAlpha" result="hardAlpha" values="0 0 0 0 0 0 0 0 0 0 0 0 0 0 0 0 0 0 127 0"/><feOffset dy=".1"/><feGaussianBlur stdDeviation=".15"/><feComposite in2="hardAlpha" k2="-1" k3="1" operator="arithmetic"/><feColorMatrix values="0 0 0 0 0.168627 0 0 0 0 0.388235 0 0 0 0 0.74902 0 0 0 1 0"/><feBlend in2="shape" result="effect1_innerShadow_18_20855"/></filter><filter id="s" width="14.83" height="2.8" x="8.41" y="23.22" color-interpolation-filters="sRGB" filterUnits="userSpaceOnUse"><feFlood flood-opacity="0" result="BackgroundImageFix"/><feBlend in="SourceGraphic" in2="BackgroundImageFix" result="shape"/><feColorMatrix in="SourceAlpha" result="hardAlpha" values="0 0 0 0 0 0 0 0 0 0 0 0 0 0 0 0 0 0 127 0"/><feOffset dy=".1"/><feGaussianBlur stdDeviation=".15"/><feComposite in2="hardAlpha" k2="-1" k3="1" operator="arithmetic"/><feColorMatrix values="0 0 0 0 0.694118 0 0 0 0 0.192157 0 0 0 0 0.360784 0 0 0 1 0"/><feBlend in2="shape" result="effect1_innerShadow_18_20855"/></filter><filter id="u" width="13.73" height="16.28" x="3.28" y="4" color-interpolation-filters="sRGB" filterUnits="userSpaceOnUse"><feFlood flood-opacity="0" result="BackgroundImageFix"/><feBlend in="SourceGraphic" in2="BackgroundImageFix" result="shape"/><feColorMatrix in="SourceAlpha" result="hardAlpha" values="0 0 0 0 0 0 0 0 0 0 0 0 0 0 0 0 0 0 127 0"/><feOffset dy=".1"/><feGaussianBlur stdDeviation=".25"/><feComposite in2="hardAlpha" k2="-1" k3="1" operator="arithmetic"/><feColorMatrix values="0 0 0 0 0.623529 0 0 0 0 0.858824 0 0 0 0 0.290196 0 0 0 1 0"/><feBlend in2="shape" result="effect1_innerShadow_18_20855"/></filter><filter id="A" width="14.83" height="2.8" x="2.19" y="20.18" color-interpolation-filters="sRGB" filterUnits="userSpaceOnUse"><feFlood flood-opacity="0" result="BackgroundImageFix"/><feBlend in="SourceGraphic" in2="BackgroundImageFix" result="shape"/><feColorMatrix in="SourceAlpha" result="hardAlpha" values="0 0 0 0 0 0 0 0 0 0 0 0 0 0 0 0 0 0 127 0"/><feOffset dy=".1"/><feGaussianBlur stdDeviation=".15"/><feComposite in2="hardAlpha" k2="-1" k3="1" operator="arithmetic"/><feColorMatrix values="0 0 0 0 0.113725 0 0 0 0 0.435294 0 0 0 0 0.439216 0 0 0 1 0"/><feBlend in2="shape" result="effect1_innerShadow_18_20855"/></filter></defs></svg>