<svg xmlns="http://www.w3.org/2000/svg" xml:space="preserve" fill-rule="evenodd" stroke-linecap="round" stroke-linejoin="round" stroke-miterlimit="1.5" clip-rule="evenodd" viewBox="0 0 64 64"><path fill="#fff" stroke="#fff" stroke-width="3" d="M12.898 41.56c-.632-.97-2.01-3.382-1.698-5.56-.548 1.036-1 2-1 2s-1.802-8.094 1-13C9.836 26.252 8 27 8 27s6.164-10.42 11.2-12c-1.318-.566-2.122-.988-2-2 2.602.568 10.478-2.714 14-1-1.004-1.602-1-3-1-3s4.384 3.272 5 3c.616-.272 11.588-1.912 18 10 6.412 11.912.016 19.152-2 20 .144-.598-.054-1.136-.44-1.608.284.85.44 1.772.44 2.608 0 .87-.17 1.836-.512 2.714.542 1.876 2.274 6.608 5.312 3.786-1.046 2.526-3.064 2.438-4 2.5.564 1.35-4.87.676-5.5 0 .458 1.364-4.78.95-6.172-1.092C37.428 52.246 34.02 53 30.2 53c-12.616 0-19-3.584-19-8 0-1.23.61-2.398 1.698-3.44Z"/><path fill="#123" stroke="#123" d="M50.5 45s1.759 7.974 5.5 4.5c-1.046 2.525-3.063 2.438-4 2.5.564 1.35-4.871.676-5.5 0 .518 1.548-6.289.806-6.5-2-.211-2.806 10.5-5 10.5-5Z"/><path fill="#fdb" stroke="#123" stroke-width=".45" d="M26 16.5c0 4.691-3.761 8.5-9.671 8.5-5.81 0-8.75-1.604-8.75-3.579 0-.758.531-1.461 1.437-2.039A8.267 8.267 0 0 1 8.5 16.5c0-4.691 3-8.5 8.75-8.5C22.079 8 26 10.019 26 16.5Z" transform="matrix(2.1714 0 0 2.2353 -5.2571 -2.8824)"/><path fill="none" stroke="#123" d="M24.473 44.985c-.168.294-.39.685-.316 1.029.135.627 1.091.613 1.547.449.215-.077.418-.198.584-.357.109-.104.194-.281.36-.302.094-.012.219.141.278.191.173.145.356.276.563.368.579.258 1.224.196 1.817.019.414-.124.867-.288 1.14-.644.27-.352.258-.801-.195-.987"/><ellipse cx="8.5" cy="49.5" fill="#fbc" rx="4.5" ry="2.5" transform="matrix(1 0 0 1.4 9.7 -26.8)"/><ellipse cx="8.5" cy="49.5" fill="#fbc" rx="4.5" ry="2.5" transform="matrix(1 0 0 1.4 30.7 -26.8)"/><path fill="none" stroke="#123" d="M15.7 37.5s3.121-1.078 7-1m-7 1.904s3.121-1.078 7-1m-7 1.9s3.121-1.078 7-1m-7 1.9s3.121-1.078 7-1"/><circle cx="19.75" cy="38.25" r=".75" fill="#eff" transform="matrix(1.2879 -.345 .2588 .966 -16.1359 8.0995)"/><circle cx="19.75" cy="38.25" r=".75" fill="#eff" transform="translate(8.0333 12.5) scale(.6667)"/><circle cx="19.75" cy="38.25" r=".75" fill="#eff" transform="matrix(.3143 .3143 -.3928 .3928 29.5192 18.1838)"/><path fill="none" stroke="#123" d="M31.7 36.5s6.717-.21 8.5.498m-8.5.431s6.717-.21 8.5.498m-8.5.402s6.717-.21 8.5.498m-8.5.402s6.717-.21 8.5.498"/><g fill="#eff" transform="translate(-.8)"><ellipse cx="35.5" cy="37.75" rx="1" ry=".75" transform="translate(0 -.25)"/><circle cx="38" cy="38" r=".5" transform="translate(-1 1)"/><circle cx="37.75" cy="37.75" r=".25"/></g><path fill="#123" stroke="#123" stroke-width=".9999" d="M14.621 32.7286s2.4867-2.704 7.579-1.6842c-.8196-1.6396-2.7105-3.15-5.8948-1.6842-3.1685 1.4586-2.1688 4.621-1.6842 3.3684Z"/><path fill="#123" stroke="#123" stroke-width="1.0006" d="M40.7022 31.3456s-3.4-2.9853-9.5023-1.0685c.7887-2.1155 2.9062-4.2131 6.998-2.8356 4.0715 1.3707 3.262 5.3745 2.5043 3.9041Z"/><ellipse cx="21" cy="38.25" fill="none" stroke="#123" stroke-width=".92" rx="6.5" ry="5.75" transform="matrix(1.077 0 0 1.087 -3.9154 -3.326)"/><ellipse cx="21" cy="38.25" fill="none" stroke="#123" stroke-width=".88" rx="6.5" ry="5.75" transform="matrix(1.1539 0 0 1.1304 12.4692 -5.2391)"/><path fill="none" stroke="#123" stroke-width=".83" d="M27.5 38.5h2.522" transform="matrix(1.3878 0 0 1 -12.4656 0)"/><path fill="#fdb" stroke="#123" stroke-width=".39" d="M24 19.833c1.104-1.666 2 .287 2 1.667 0 1.38-.896 3.333-2.727 1.667" transform="matrix(2.75 0 0 2.4 -20.3 -8.6)"/><path fill="#123" stroke="#123" d="M25.2 20s-8.734 6.4-8 23c-1.212-.548-2-3-2-3s-.234 1.48 0 2c-.516-.514-1-1-1-1l-1 1s-2.402-3.194-2-6c-.548 1.036-1 2-1 2s-1.802-8.094 1-13C9.836 26.252 8 27 8 27s6.164-10.42 11.2-12c-1.318-.566-2.122-.988-2-2 2.602.568 10.478-2.714 14-1-1.004-1.602-1-3-1-3s4.384 3.272 5 3c.616-.272 11.588-1.912 18 10 6.412 11.912.016 19.152-2 20-1.386-7.558-4.5-4-4.5-4s-2.708 3.256-4.5 4c-.284-1.898 0-2 0-2s-3.342 3.004-4 3c-.64-.004 6.398-12.324-1-18-6.882-5.376-9.358-6.586-12-5Z"/><circle cx="23.5" cy="22.5" r=".5" fill="#123" transform="matrix(3 0 0 3 -23.3 -21.6)"/></svg>